<?xml version="1.0" standalone="no"?>
<!DOCTYPE svg PUBLIC "-//W3C//DTD SVG 20010904//EN"
 "http://www.w3.org/TR/2001/REC-SVG-20010904/DTD/svg10.dtd">
<svg version="1.0" xmlns="http://www.w3.org/2000/svg"
 width="500.000000pt" height="500.000000pt" viewBox="0 0 500.000000 500.000000"
 preserveAspectRatio="xMidYMid meet">

<g transform="translate(0.000000,500.000000) scale(0.100000,-0.100000)"
fill="#8454E4" stroke="none">
<path d="M898 4612 c-268 -148 -491 -271 -495 -276 -6 -5 -125 -2987 -120
-2992 1 -1 258 139 572 311 l570 314 -3 78 c-1 43 -16 421 -33 841 -16 420
-29 785 -27 811 l3 48 730 -498 c402 -274 735 -498 741 -499 10 0 1119 604
1136 619 7 6 -2549 1503 -2575 1508 -7 2 -231 -118 -499 -265z"/>
<path d="M4180 3375 c-305 -168 -558 -309 -563 -314 -5 -5 7 -399 27 -891 20
-486 35 -885 33 -886 -2 -2 -334 222 -738 497 -403 275 -741 498 -749 496 -18
-5 -1112 -605 -1123 -616 -7 -7 2512 -1486 2564 -1506 10 -4 201 96 510 266
272 149 495 272 496 273 2 2 113 2895 113 2949 0 20 -3 37 -7 37 -5 0 -258
-138 -563 -305z"/>
</g>
</svg>
